<?xml version="1.0" standalone="no"?><!DOCTYPE svg PUBLIC "-//W3C//DTD SVG 1.1//EN" "http://www.w3.org/Graphics/SVG/1.1/DTD/svg11.dtd"><svg t="1546262680531" class="icon" style="" viewBox="0 0 1024 1024" version="1.1" xmlns="http://www.w3.org/2000/svg" p-id="1258" xmlns:xlink="http://www.w3.org/1999/xlink" width="200" height="200"><defs><style type="text/css"></style></defs><path d="M520.904 883.982c-52.696 0-103.842-10.291-152.017-30.586-46.547-19.609-88.387-47.689-124.357-83.465-35.978-35.781-64.292-77.477-84.152-123.924-20.563-48.092-31.129-99.219-31.404-151.962-0.275-52.912 9.821-104.297 30.01-152.73 19.499-46.779 47.542-88.844 83.35-125.028 35.809-36.184 77.581-64.665 124.154-84.651 48.222-20.693 99.502-31.325 152.418-31.6 53.399-0.292 105.291 10.021 154.094 30.58 46.546 19.609 88.386 47.69 124.356 83.464 35.979 35.782 64.292 77.476 84.153 123.924 20.564 48.091 31.131 99.218 31.405 151.961 0.275 52.912-9.822 104.298-30.012 152.73-19.5 46.779-47.544 88.846-83.353 125.029-35.81 36.186-77.58 64.666-124.153 84.652-48.221 20.693-99.5 31.324-152.413 31.6-0.684 0.004-1.393 0.006-2.079 0.006z m0.084-773.951c-0.669 0-1.361 0.002-2.031 0.005-102.029 0.531-197.745 40.763-269.515 113.285-71.768 72.521-111 168.647-110.468 270.671 1.09 209.527 172.423 379.99 381.93 379.99 0.668 0 1.359-0.002 2.029-0.006 210.617-1.096 381.077-173.34 379.981-383.958-1.09-209.526-172.421-379.987-381.926-379.987z" fill="#1296db" p-id="1259"></path><path d="M467.847 659.717h-0.015c-5.327 0-6.25-6.283-6.694-9.303-0.51-3.471-0.804-8.037-0.829-12.857L458.85 357.07c-0.025-4.823 0.222-9.394 0.696-12.869 0.414-3.032 1.274-9.34 6.625-9.367 5.354 0 6.276 6.283 6.72 9.302 0.509 3.469 0.804 8.035 0.829 12.857l1.459 280.486c0.025 4.824-0.222 9.395-0.696 12.871-0.414 3.031-1.273 9.34-6.624 9.367h-0.012zM583.51 659.115h-0.015c-5.326 0-6.249-6.283-6.693-9.303-0.51-3.471-0.805-8.037-0.83-12.857l-1.459-280.487c-0.025-4.822 0.222-9.393 0.696-12.869 0.414-3.031 1.274-9.339 6.624-9.367 5.354 0 6.276 6.283 6.72 9.302 0.51 3.469 0.805 8.035 0.829 12.856l1.46 280.486c0.025 4.824-0.222 9.395-0.695 12.869-0.413 3.033-1.273 9.342-6.624 9.369h-0.013z" fill="#1296db" p-id="1260"></path></svg>